Coordinates
version=1
nRows=54
nColumns=12
inDegrees=yes

Units are S.I. units (second, meters, Newtons, ...)
Angles are in degrees

endheader
time	SC_y	SC_z	SC_x	AC_y	AC_z	AC_x	GH_y	GH_z	GH_yy	EL_x	PS_y
       0.0               -22.5          21.91          30.55          68.47         -12.71         -7.166           87.5          70.77         -172.5           13.3          13.12
   0.04211               -22.5           21.9          30.54          68.47         -12.71         -7.163          87.48          70.76         -172.5          13.32          13.12
   0.08423               -22.5           21.9          30.54          68.47         -12.71          -7.16          87.45          70.75         -172.5          13.33          13.13
    0.1263               -22.5           21.9          30.54          68.46          -12.7         -7.157          87.42          70.74         -172.5          13.35          13.13
    0.1685               -22.5          21.89          30.53          68.46          -12.7         -7.153          87.39          70.72         -172.5          13.37          13.14
    0.2106               -22.5          21.89          30.53          68.46          -12.7          -7.15          87.35          70.71         -172.4          13.38          13.15
    0.2527               -22.5          21.89          30.52          68.45         -12.69         -7.146          87.32          70.69         -172.4           13.4          13.15
    0.2948               -22.5          21.88          30.52          68.45         -12.69         -7.142          87.28          70.68         -172.4          13.43          13.16
    0.3369               -22.5          21.88          30.51          68.44         -12.69         -7.138          87.24          70.66         -172.4          13.45          13.17
     0.379               -22.5          21.87          30.51          68.44         -12.68         -7.133          87.19          70.64         -172.3          13.47          13.17
    0.4211               -22.5          21.87           30.5          68.43         -12.68         -7.128          87.15          70.62         -172.3           13.5          13.18
    0.4633              -22.51          21.86           30.5          68.43         -12.67         -7.123          87.09           70.6         -172.3          13.53          13.19
    0.5054              -22.51          21.86          30.49          68.42         -12.66         -7.117          87.04          70.58         -172.3          13.56           13.2
    0.5475              -22.51          21.85          30.48          68.42         -12.66         -7.111          86.98          70.55         -172.2          13.59          13.21
    0.5896              -22.51          21.85          30.47          68.41         -12.65         -7.104          86.92          70.53         -172.2          13.62          13.22
    0.6317              -22.51          21.84          30.47           68.4         -12.64         -7.097          86.84           70.5         -172.1          13.66          13.23
    0.6738              -22.51          21.83          30.46           68.4         -12.64         -7.089          86.77          70.47         -172.1           13.7          13.25
    0.7159              -22.51          21.82          30.45          68.39         -12.63          -7.08          86.69          70.43         -172.1          13.75          13.26
     0.758              -22.52          21.81          30.43          68.38         -12.62          -7.07          86.59          70.39         -172.0           13.8          13.28
    0.8002              -22.52           21.8          30.42          68.37         -12.61          -7.06           86.5          70.35         -172.0          13.85          13.29
    0.8423              -22.52          21.79          30.41          68.36          -12.6         -7.049          86.39          70.31         -171.9          13.91          13.31
    0.8844              -22.52          21.78          30.39          68.35         -12.58         -7.036          86.27          70.26         -171.8          13.98          13.33
    0.9265              -22.53          21.77          30.38          68.33         -12.57         -7.022          86.13           70.2         -171.7          14.05          13.36
    0.9686              -22.53          21.75          30.36          68.32         -12.55         -7.007          85.99          70.14         -171.7          14.13          13.38
     1.011              -22.54          21.74          30.34           68.3         -12.54          -6.99          85.82          70.07         -171.6          14.22          13.41
     1.053              -22.54          21.72          30.32          68.28         -12.52         -6.971          85.64           70.0         -171.5          14.32          13.44
     1.095              -22.54           21.7          30.29          68.26          -12.5          -6.95          85.44          69.91         -171.4          14.43          13.47
     1.137              -22.55          21.67          30.27          68.24         -12.47         -6.926          85.21          69.82         -171.2          14.56          13.51
     1.179              -22.56          21.65          30.23          68.21         -12.45         -6.898          84.95          69.71         -171.1           14.7          13.56
     1.221              -22.56          21.62           30.2          68.18         -12.42         -6.868          84.65          69.58         -170.9          14.86          13.61
     1.263              -22.57          21.58          30.16          68.15         -12.38         -6.833          84.32          69.44         -170.7          15.04          13.67
     1.306              -22.58          21.54          30.11          68.11         -12.34         -6.792          83.93          69.28         -170.5          15.25          13.73
     1.348              -22.59           21.5          30.05          68.07         -12.29         -6.746          83.49           69.1         -170.3           15.5          13.81
      1.39               -22.6          21.45          29.99          68.02         -12.24         -6.692          82.97          68.88         -170.0          15.78           13.9
     1.432              -22.62          21.38          29.92          67.95         -12.18         -6.628          82.36          68.63         -169.6          16.11           14.0
     1.474              -22.63          21.31          29.83          67.88          -12.1         -6.554          81.65          68.33         -169.2           16.5          14.12
     1.516              -22.65          21.23          29.73           67.8         -12.01         -6.465           80.8          67.98         -168.7          16.97          14.27
     1.558              -22.68          21.12           29.6           67.7         -11.91         -6.359          79.79          67.56         -168.2          17.52          14.44
       1.6              -22.71           21.0          29.45          67.57         -11.78          -6.23          78.56          67.05         -167.5          18.19          14.65
     1.642              -22.74          20.84          29.27          67.42         -11.62         -6.073          77.05          66.42         -166.6          19.01          14.91
     1.685              -22.79          20.66          29.04          67.24         -11.42         -5.879           75.2          65.65         -165.6          20.03          15.23
     1.727              -22.84          20.42          28.76           67.0         -11.18         -5.638          72.89          64.68         -164.3          21.29          15.62
     1.769              -22.91          20.12           28.4          66.71         -10.88         -5.333          69.97          63.47         -162.7          22.88          16.12
     1.811               -23.0          19.75          27.95          66.34         -10.49         -4.946          66.27          61.93         -160.6          24.91          16.76
     1.853              -23.11          19.27          27.37          65.86         -9.993         -4.451          61.53          59.96         -157.9           27.5          17.57
     1.895              -23.25          18.65          26.62          65.25         -9.356         -3.815          55.45          57.42         -154.5          30.82          18.61
     1.937              -23.43          17.86          25.67          64.47         -8.543         -3.003          47.68          54.19         -150.1          35.07          19.94
     1.979              -23.66          16.87          24.48          63.49         -7.519         -1.982          37.91          50.12         -144.6          40.41          21.62
     2.021              -23.94          15.66          23.02           62.3         -6.273        -0.7371          26.01          45.16         -137.9          46.92          23.66
     2.064              -24.27          14.25          21.33          60.91         -4.827         0.7054          12.21          39.41         -130.2          54.46          26.02
     2.106              -24.62          12.73           19.5          59.41         -3.262          2.267         -2.736          33.19         -121.8          62.63          28.58
     2.148              -24.97          11.21          17.68          57.91         -1.698          3.829         -17.68          26.97         -113.4           70.8          31.14
      2.19               -25.3          9.812          15.99          56.53        -0.2523          5.272         -31.48          21.22         -105.6          78.34           33.5
     2.232              -25.58          8.602          14.53          55.33         0.9946          6.516         -43.38          16.27         -98.89          84.85          35.54
